<svg width="213" height="213" viewBox="0 0 213 213" fill="none" xmlns="http://www.w3.org/2000/svg">
<path d="M186.375 44.375C176.524 41.2688 165.696 39.9375 155.312 39.9375C138.006 39.9375 119.369 43.4875 106.5 53.25C93.6312 43.4875 74.9938 39.9375 57.6875 39.9375C40.3812 39.9375 21.7438 43.4875 8.875 53.25V183.269C8.875 185.488 11.0938 187.706 13.3125 187.706C14.2 187.706 14.6437 187.263 15.5312 187.263C27.5125 181.494 44.8187 177.5 57.6875 177.5C74.9938 177.5 93.6312 181.05 106.5 190.813C118.481 183.269 140.225 177.5 155.312 177.5C169.956 177.5 185.044 180.163 197.469 186.819C198.356 187.263 198.8 187.263 199.688 187.263C201.906 187.263 204.125 185.044 204.125 182.825V53.25C198.8 49.2563 193.031 46.5938 186.375 44.375ZM186.375 164.188C176.612 161.081 165.963 159.75 155.312 159.75C140.225 159.75 118.481 165.519 106.5 173.063V71C118.481 63.4563 140.225 57.6875 155.312 57.6875C165.963 57.6875 176.612 59.0188 186.375 62.125V164.188Z" fill="white"/>
<path d="M155.313 93.1875C163.123 93.1875 170.666 93.9863 177.5 95.495V82.005C170.489 80.6737 162.945 79.875 155.313 79.875C140.225 79.875 126.558 82.4487 115.375 87.2412V101.974C125.404 96.2937 139.338 93.1875 155.313 93.1875Z" fill="white"/>
<path d="M115.375 110.849V125.581C125.404 119.901 139.338 116.795 155.313 116.795C163.123 116.795 170.666 117.594 177.5 119.102V105.612C170.489 104.281 162.945 103.482 155.313 103.482C140.225 103.482 126.558 106.145 115.375 110.849Z" fill="white"/>
<path d="M155.313 127.179C140.225 127.179 126.558 129.752 115.375 134.545V149.277C125.404 143.597 139.338 140.491 155.313 140.491C163.123 140.491 170.666 141.29 177.5 142.799V129.309C170.489 127.889 162.945 127.179 155.313 127.179Z" fill="white"/>
</svg>
