<svg width="170" height="170" viewBox="0 0 170 170" fill="none" xmlns="http://www.w3.org/2000/svg">
<path d="M84.5833 0C37.8933 0 0 37.8933 0 84.5833C0 131.273 37.8933 169.167 84.5833 169.167C131.273 169.167 169.167 131.273 169.167 84.5833C169.167 37.8933 131.273 0 84.5833 0V0ZM115.118 53.6258C124.168 53.6258 131.443 60.9 131.443 69.9504C131.443 79.0008 124.168 86.275 115.118 86.275C106.068 86.275 98.7933 79.0008 98.7933 69.9504C98.7088 60.9 106.068 53.6258 115.118 53.6258V53.6258ZM64.3679 40.2617C75.3638 40.2617 84.3296 49.2275 84.3296 60.2233C84.3296 71.2192 75.3638 80.185 64.3679 80.185C53.3721 80.185 44.4063 71.2192 44.4063 60.2233C44.4063 49.1429 53.2875 40.2617 64.3679 40.2617ZM64.3679 117.486V149.205C44.0679 142.861 27.9971 127.213 20.8921 107.252C29.7733 97.7783 51.9342 92.9571 64.3679 92.9571C68.8508 92.9571 74.5179 93.6338 80.4388 94.8179C66.5671 102.177 64.3679 111.904 64.3679 117.486ZM84.5833 152.25C82.2996 152.25 80.1004 152.165 77.9013 151.912V117.486C77.9013 105.475 102.769 99.47 115.118 99.47C124.168 99.47 139.816 102.769 147.598 109.197C137.702 134.318 113.257 152.25 84.5833 152.25V152.25Z" fill="white"/>
</svg>
